<?xml version="1.0" encoding="UTF-8"?>
<svg version="1.1" xmlns="http://www.w3.org/2000/svg" width="112" height="36">
<path d="M0 0 C1.65 0 3.3 0 5 0 C5 1.65 5 3.3 5 5 C5.66 3.35 6.32 1.7 7 0 C8.66611905 -0.042721 10.33382885 -0.04063832 12 0 C13 1 13 1 13.25 3.375 C13 6 13 6 11.4375 7.4375 C10.7259375 8.2109375 10.7259375 8.2109375 10 9 C10.23283149 12.14921909 10.23283149 12.14921909 11 15 C11.45375 13.865625 11.9075 12.73125 12.375 11.5625 C14 8 14 8 16 7 C17.54023996 6.93049459 19.08334988 6.91547643 20.625 6.9375 C21.85089844 6.95103516 21.85089844 6.95103516 23.1015625 6.96484375 C24.04128906 6.98224609 24.04128906 6.98224609 25 7 C25.33 8.98 25.66 10.96 26 13 C28.46278801 10.53721199 28.99771255 8.29323018 30 5 C32.475 5.495 32.475 5.495 35 6 C35 7.32 35 8.64 35 10 C36.32 10 37.64 10 39 10 C39.33 9.01 39.66 8.02 40 7 C43.3 7 46.6 7 50 7 C50.495 7.99 50.495 7.99 51 9 C51.99 8.34 52.98 7.68 54 7 C57.5625 6.875 57.5625 6.875 61 7 C61.66 7 62.32 7 63 7 C66 7 69 7 72 7 C72 8.32 72 9.64 72 11 C71.34 11.33 70.68 11.66 70 12 C70.020625 12.969375 70.04125 13.93875 70.0625 14.9375 C70 18 70 18 69 19 C64.46511628 19.23255814 64.46511628 19.23255814 62 18 C61.34 18.33 60.68 18.66 60 19 C53.52941176 19.35294118 53.52941176 19.35294118 50 17 C49.01 17.66 48.02 18.32 47 19 C45.68 19 44.36 19 43 19 C42.67 20.98 42.34 22.96 42 25 C40.68 25 39.36 25 38 25 C37.505 22.03 37.505 22.03 37 19 C35.35 19 33.7 19 32 19 C32 19.66 32 20.32 32 21 C27.48477536 21.2150107 24.24796939 20.44611724 20 19 C17.37468476 18.83286431 17.37468476 18.83286431 15 19 C12 19 9 19 6 19 C5.34 16.69 4.68 14.38 4 12 C3.01 14.31 2.02 16.62 1 19 C-0.66611905 19.042721 -2.33382885 19.04063832 -4 19 C-5 18 -5 18 -5.0625 15.4375 C-5.041875 14.633125 -5.02125 13.82875 -5 13 C-4.35546875 12.78601562 -3.7109375 12.57203125 -3.046875 12.3515625 C-0.72160885 11.1526477 -0.72160885 11.1526477 -0.390625 8.3984375 C-0.34421875 7.40070312 -0.2978125 6.40296875 -0.25 5.375 C-0.19328125 4.37210938 -0.1365625 3.36921875 -0.078125 2.3359375 C-0.05234375 1.56507812 -0.0265625 0.79421875 0 0 Z M57 9 C56.34 10.32 55.68 11.64 55 13 C55.99 12.34 56.98 11.68 58 11 C57.67 10.34 57.34 9.68 57 9 Z M18 10 C17.67 11.65 17.34 13.3 17 15 C17.99 15 18.98 15 20 15 C20.33 13.35 20.66 11.7 21 10 C20.01 10 19.02 10 18 10 Z M44 10 C43.67 11.98 43.34 13.96 43 16 C44.32 15.34 45.64 14.68 47 14 C46.67 12.68 46.34 11.36 46 10 C45.34 10 44.68 10 44 10 Z M33 13 C33 13.99 33 14.98 33 16 C33.66 16 34.32 16 35 16 C34.67 15.01 34.34 14.02 34 13 C33.67 13 33.34 13 33 13 Z M29 15 C30 18 30 18 30 18 Z " fill="#FFFFFF" transform="translate(40,11)"/>
<path d="M0 0 C4.03297602 2.23115776 6.53820819 4.61462458 8 9 C8.08209792 10.77313851 8.10746294 12.54920775 8.09765625 14.32421875 C8.09443359 15.35224609 8.09121094 16.38027344 8.08789062 17.43945312 C8.07951172 18.51130859 8.07113281 19.58316406 8.0625 20.6875 C8.05798828 21.77095703 8.05347656 22.85441406 8.04882812 23.97070312 C8.03703743 26.64719085 8.02058063 29.32356777 8 32 C6.59621094 31.73703125 6.59621094 31.73703125 5.1640625 31.46875 C2.01068839 31.00158346 0.06843774 31.35401311 -3 32 C-4.33333333 31.66666667 -5.66666667 31.33333333 -7 31 C-8.2375 31.2475 -8.2375 31.2475 -9.5 31.5 C-12.14692425 32.02938485 -13.44965713 31.68009143 -16 31 C-16.99 31.33 -17.98 31.66 -19 32 C-19.11668214 28.12525543 -19.18741231 24.25096604 -19.25 20.375 C-19.28351562 19.28058594 -19.31703125 18.18617187 -19.3515625 17.05859375 C-19.42798253 10.75394148 -19.44493158 6.67805736 -15 2 C-10.59663968 -1.08504267 -5.13551581 -0.84746876 0 0 Z M-12 10 C-12 10.99 -12 11.98 -12 13 C-11.01 13 -10.02 13 -9 13 C-9 12.01 -9 11.02 -9 10 C-9.99 10 -10.98 10 -12 10 Z M-2 10 C-2 10.99 -2 11.98 -2 13 C-1.01 12.67 -0.02 12.34 1 12 C0.67 11.34 0.34 10.68 0 10 C-0.66 10 -1.32 10 -2 10 Z " fill="#00C7FC" transform="translate(19,0)"/>
<path d="M0 0 C3.33333333 0 6.66666667 0 10 0 C10 1.98 10 3.96 10 6 C6.7 6 3.4 6 0 6 C0 4.02 0 2.04 0 0 Z M3 2 C2.67 2.99 2.34 3.98 2 5 C2.66 5 3.32 5 4 5 C3.67 4.01 3.34 3.02 3 2 Z " fill="#00C7FC" transform="translate(78,9)"/>
<path d="M0 0 C2.97 0 5.94 0 9 0 C9 1.98 9 3.96 9 6 C6.69 6 4.38 6 2 6 C2 4.68 2 3.36 2 2 C1.34 2 0.68 2 0 2 C0 1.34 0 0.68 0 0 Z " fill="#00C7FC" transform="translate(102,9)"/>
<path d="M0 0 C0.33 0 0.66 0 1 0 C1 1.65 1 3.3 1 5 C1.99 5 2.98 5 4 5 C4.33 3.35 4.66 1.7 5 0 C5.66 0 6.32 0 7 0 C7.66 1.98 8.32 3.96 9 6 C6.03 6 3.06 6 0 6 C0 4.02 0 2.04 0 0 Z " fill="#00C7FC" transform="translate(94,9)"/>
<path d="M0 0 C1.32 0.33 2.64 0.66 4 1 C4 1.99 4 2.98 4 4 C3.34 4 2.68 4 2 4 C2 4.66 2 5.32 2 6 C1.34 6 0.68 6 0 6 C0 4.02 0 2.04 0 0 Z " fill="#00C7FC" transform="translate(89,9)"/>
<path d="M0 0 C1.32 0 2.64 0 4 0 C3.67 1.98 3.34 3.96 3 6 C2.34 6 1.68 6 1 6 C0.67 4.02 0.34 2.04 0 0 Z " fill="#00C7FC" transform="translate(73,9)"/>
</svg>
